<?xml version="1.0" encoding="UTF-8"?>
<svg xmlns="http://www.w3.org/2000/svg" xmlns:xlink="http://www.w3.org/1999/xlink" width="37pt" height="35pt" viewBox="0 0 37 35" version="1.1">
<g id="surface1">
<path style=" stroke:none;fill-rule:nonzero;fill:rgb(0%,0%,0%);fill-opacity:1;" d="M 12.222656 4.769531 C 15.601562 4.847656 21.105469 4.847656 24.519531 4.769531 C 27.898438 4.734375 25.105469 4.65625 18.351562 4.65625 C 11.601562 4.65625 8.808594 4.734375 12.222656 4.769531 Z M 12.222656 4.769531 "/>
<path style=" stroke:none;fill-rule:nonzero;fill:rgb(0%,0%,0%);fill-opacity:1;" d="M 31.238281 5.519531 C 31.492188 5.972656 31.789062 6.269531 31.898438 6.15625 C 32.007812 6.082031 31.789062 5.710938 31.421875 5.332031 C 30.796875 4.734375 30.757812 4.734375 31.238281 5.519531 Z M 31.238281 5.519531 "/>
<path style=" stroke:none;fill-rule:nonzero;fill:rgb(0%,0%,0%);fill-opacity:1;" d="M 3.011719 19.042969 C 2.9375 30.722656 3.082031 32.484375 3.890625 31.09375 C 4.039062 30.835938 4 30.796875 3.746094 30.945312 C 3.414062 31.132812 3.304688 28.015625 3.195312 18.890625 L 3.121094 6.574219 Z M 3.011719 19.042969 "/>
<path style=" stroke:none;fill-rule:nonzero;fill:rgb(0%,0%,0%);fill-opacity:1;" d="M 32.007812 13.78125 C 31.972656 17.539062 31.824219 20.917969 31.714844 21.292969 C 31.53125 21.894531 31.53125 21.894531 31.898438 21.332031 C 32.191406 20.917969 32.265625 18.363281 32.191406 13.820312 L 32.117188 6.949219 Z M 32.007812 13.78125 "/>
<path style=" stroke:none;fill-rule:nonzero;fill:rgb(0%,0%,0%);fill-opacity:1;" d="M 10.277344 10.890625 C 10.277344 11.304688 10.425781 11.640625 10.609375 11.640625 C 10.792969 11.640625 10.867188 11.304688 10.753906 10.890625 C 10.644531 10.476562 10.5 10.140625 10.425781 10.140625 C 10.351562 10.140625 10.277344 10.476562 10.277344 10.890625 Z M 10.277344 10.890625 "/>
<path style=" stroke:none;fill-rule:nonzero;fill:rgb(0%,0%,0%);fill-opacity:1;" d="M 21.105469 12.394531 C 21.511719 12.917969 21.878906 13.410156 21.914062 13.484375 C 22.0625 13.707031 23.085938 12.28125 23.125 11.867188 C 23.125 11.640625 22.902344 11.828125 22.613281 12.207031 C 22.097656 12.917969 22.0625 12.917969 21.214844 12.207031 L 20.371094 11.453125 Z M 21.105469 12.394531 "/>
<path style=" stroke:none;fill-rule:nonzero;fill:rgb(0%,0%,0%);fill-opacity:1;" d="M 10.316406 15.847656 C 10.277344 16.863281 10.316406 16.898438 12.222656 16.898438 C 13.984375 16.898438 14.242188 17.011719 14.609375 17.839844 C 14.828125 18.363281 15.160156 18.777344 15.34375 18.777344 C 15.527344 18.777344 15.859375 18.363281 16.078125 17.839844 C 16.480469 16.898438 16.554688 16.898438 21.363281 16.828125 L 26.246094 16.75 L 21.472656 16.601562 C 16.886719 16.488281 16.664062 16.523438 16.003906 17.351562 L 15.34375 18.214844 L 14.792969 17.351562 C 14.316406 16.675781 13.875 16.523438 12.441406 16.523438 C 10.9375 16.523438 10.683594 16.410156 10.535156 15.660156 C 10.386719 14.945312 10.386719 14.984375 10.316406 15.847656 Z M 10.316406 15.847656 "/>
<path style=" stroke:none;fill-rule:nonzero;fill:rgb(0%,0%,0%);fill-opacity:1;" d="M 31.933594 23.472656 C 31.457031 24 30.832031 24.414062 30.539062 24.414062 C 30.207031 24.414062 30.097656 24.523438 30.207031 24.671875 C 30.574219 25.011719 32.300781 24 32.707031 23.210938 C 33.183594 22.273438 32.960938 22.34375 31.933594 23.472656 Z M 31.933594 23.472656 "/>
<path style=" stroke:none;fill-rule:nonzero;fill:rgb(0%,0%,0%);fill-opacity:1;" d="M 8.589844 24.488281 L 7.890625 25.351562 L 8.734375 24.636719 C 9.507812 23.960938 9.726562 23.660156 9.433594 23.660156 C 9.359375 23.660156 8.992188 24.035156 8.589844 24.488281 Z M 8.589844 24.488281 "/>
<path style=" stroke:none;fill-rule:nonzero;fill:rgb(0%,0%,0%);fill-opacity:1;" d="M 8.992188 26.363281 L 7.523438 27.976562 L 8.992188 26.589844 L 10.460938 25.164062 L 20.003906 25.050781 L 29.546875 24.972656 L 20.003906 24.863281 L 10.425781 24.785156 Z M 8.992188 26.363281 "/>
<path style=" stroke:none;fill-rule:nonzero;fill:rgb(0%,0%,0%);fill-opacity:1;" d="M 5.46875 27.304688 C 4.992188 27.902344 5.03125 27.941406 5.613281 27.453125 C 5.949219 27.191406 6.238281 26.890625 6.238281 26.8125 C 6.238281 26.515625 5.949219 26.699219 5.46875 27.304688 Z M 5.46875 27.304688 "/>
<path style=" stroke:none;fill-rule:nonzero;fill:rgb(0%,0%,0%);fill-opacity:1;" d="M 5.835938 29.179688 L 4.589844 30.609375 L 5.980469 29.332031 C 7.230469 28.089844 7.523438 27.789062 7.230469 27.789062 C 7.15625 27.789062 6.53125 28.429688 5.835938 29.179688 Z M 5.835938 29.179688 "/>
</g>
</svg>
